<?xml version="1.0" encoding="UTF-8"?>
<svg viewBox="0 0 99.905 84.756" xmlns="http://www.w3.org/2000/svg">
 <g stroke="#000">
  <g fill-rule="evenodd">
   <g fill="#0ff">
    <path d="m34.713 24.877l14.41 30.738 14.736-30.172c-9.656 1.7526-19.49 1.2519-29.146-0.56634z"/>
    <path d="m48.618 57.636l3.0305 24.244 18.183-27.527c-5.7492 1.9756-13.495 2.6202-21.213 3.283z"/>
   </g>
   <g fill="#aff">
    <path d="m48.983 57.525l1.9368 25.604-23.765-28.076c5.8202 1.7549 14.09 2.1037 21.828 2.4717z"/>
    <path d="m49.628 56.626l14.708-30.978 22.162 22.139c-7.2914 2.9873-24.295 11.287-36.87 8.8388z"/>
   </g>
   <path d="m64.431 24.952c10.714-1.9565 14.916-5.523 16.607-10.804l5.625 32.679-22.232-21.875z" fill="#0ff"/>
   <path d="m81.931 17.738l15.268 5.3571c1.1223 2.4926 3.329 7.5705 1.5178 12.232-2.0858 5.3684-6.2295 9.3309-11.339 12.5l-5.8929-30.357" fill="#aff"/>
   <path d="m78.806 8.9878c1.4942 1.9758 2.074 3.9267 2.8572 8.0357l15.804 5.625-18.661-13.661z" fill="#0ff"/>
   <path d="m49.473 56.853l-14.53-31.514-28.412 19.996c4.8458 4.4483 30.366 13.966 42.942 11.517z" fill="#aff"/>
   <path d="m34.373 25.012c-10.214-3.7806-14.985-7.4845-15.738-12.978l-11.886 32.526 27.624-19.548z" fill="#0ff"/>
   <path d="m20.288 8.6749l-18.214 15.625c-4.965 10.529 3.3554 19.115 3.9286 20.71l14.286-36.335z" fill="#aff"/>
   <path d="m5.7855 45.316l45.252 38.404-23.929-29.286c-8.2432-1.9042-14.479-5.8156-21.324-9.118z" fill="#0ff"/>
   <path d="m87.194 47.531l-36.513 36.724 18.929-29.464c6.2875-2.4686 11.951-4.955 17.585-7.2601z" fill="#aff"/>
  </g>
  <path d="m56.484 26.638a7.0149 2.8356 0 1 1 -14.03 -25.568 7.0149 2.8356 0 1 1 14.03 25.568z" fill="#0ff"/>
 </g>
</svg>
